<?xml version="1.0" standalone="no"?>
<!DOCTYPE svg PUBLIC "-//W3C//DTD SVG 20010904//EN"
 "http://www.w3.org/TR/2001/REC-SVG-20010904/DTD/svg10.dtd">
<svg version="1.0" xmlns="http://www.w3.org/2000/svg"
 width="496.000000pt" height="496.000000pt" viewBox="0 0 496.000000 496.000000"
 preserveAspectRatio="xMidYMid meet">
<metadata>
Created by potrace 1.14, written by Peter Selinger 2001-2017
</metadata>
<g transform="translate(0.000000,496.000000) scale(0.100000,-0.100000)"
fill="#000000" stroke="none">
<path d="M2359 4956 c-2 -2 -47 -6 -99 -9 -418 -26 -896 -208 -1260 -480 -123
-92 -143 -110 -280 -247 -195 -195 -333 -387 -461 -645 -298 -602 -336 -1296
-108 -1940 53 -149 172 -387 261 -520 198 -298 478 -568 778 -751 279 -170
682 -312 965 -340 39 -3 79 -8 90 -11 43 -8 355 -10 440 -2 505 47 942 220
1337 529 109 86 297 273 387 385 288 359 466 778 526 1235 14 106 22 493 11
560 -2 14 -7 52 -11 85 -44 396 -221 826 -480 1170 -394 523 -1003 879 -1645
961 -30 4 -66 8 -80 10 -36 5 -367 14 -371 10z"/>
</g>
</svg>
