<?xml version="1.0" standalone="no"?>
<!DOCTYPE svg PUBLIC "-//W3C//DTD SVG 20010904//EN"
 "http://www.w3.org/TR/2001/REC-SVG-20010904/DTD/svg10.dtd">
<svg version="1.0" xmlns="http://www.w3.org/2000/svg"
 width="447.000000pt" height="447.000000pt" viewBox="0 0 447.000000 447.000000"
 preserveAspectRatio="xMidYMid meet">
<metadata>
Created by potrace 1.14, written by Peter Selinger 2001-2017
</metadata>
<g transform="translate(0.000000,447.000000) scale(0.100000,-0.100000)"
fill="#000000" stroke="none">
<path d="M2199 4429 c-70 -10 -187 -50 -248 -86 -166 -96 -331 -275 -443 -480
-17 -32 -41 -76 -54 -98 l-22 -40 -169 -1 c-193 -1 -254 -8 -373 -40 -30 -8
-62 -16 -70 -18 -33 -8 -125 -48 -169 -73 -178 -102 -292 -254 -331 -439 -9
-44 -16 -53 -46 -67 -92 -45 -153 -141 -159 -253 -9 -167 102 -299 270 -321
50 -7 57 -13 91 -76 14 -29 46 -82 70 -119 36 -56 41 -68 28 -79 -8 -6 -14
-15 -14 -20 0 -4 -19 -36 -42 -70 -72 -110 -178 -358 -193 -454 -2 -11 -6 -40
-10 -65 -7 -46 -8 -212 -2 -240 2 -8 7 -33 11 -55 10 -48 78 -195 109 -233 38
-46 140 -142 152 -142 6 0 20 -8 31 -18 37 -34 200 -102 277 -116 15 -3 35 -7
45 -10 65 -20 190 -30 353 -30 l145 1 43 -84 c131 -254 336 -476 521 -560 106
-49 168 -63 270 -62 30 0 64 0 75 0 11 0 53 8 93 19 89 24 97 25 130 2 73 -50
198 -55 286 -12 148 71 213 241 152 392 l-23 57 33 51 c18 27 30 50 26 50 -4
0 -2 4 3 8 6 4 24 34 40 67 17 33 31 62 33 65 2 3 72 6 155 6 128 1 210 6 297
18 89 13 242 65 330 113 180 98 280 225 337 428 13 46 12 272 -2 336 -35 164
-121 360 -229 520 -37 55 -37 58 12 126 12 17 22 36 22 41 0 6 4 12 9 14 30
11 191 394 176 419 -3 4 -1 10 4 14 12 7 12 9 14 180 1 119 -2 166 -13 195 -2
3 -2 8 -1 12 2 14 -60 140 -91 186 -18 26 -57 71 -87 100 -53 52 -55 55 -56
110 -1 31 -5 66 -9 77 -51 142 -168 222 -316 216 -89 -4 -178 -54 -236 -136
l-20 -29 -147 -1 c-81 -1 -147 1 -147 4 0 13 -122 226 -131 229 -5 2 -9 8 -9
14 0 10 -49 79 -65 90 -5 4 -7 8 -3 8 15 0 -163 177 -219 217 -54 38 -174 108
-180 105 -2 -1 -8 0 -15 3 -67 20 -91 26 -124 30 -85 10 -121 11 -175 4z m243
-209 c153 -57 301 -201 432 -420 25 -41 48 -82 51 -91 6 -17 4 -18 -93 -34
-59 -10 -296 -74 -372 -100 -41 -14 -79 -27 -85 -29 -5 -2 -23 -9 -40 -16 -37
-16 -71 -16 -110 -1 -16 7 -31 12 -32 12 -2 0 -20 7 -40 16 -61 25 -289 89
-410 114 -131 27 -127 18 -55 138 143 235 301 378 475 426 72 20 205 13 279
-15z m1288 -519 c26 -2 73 -49 66 -66 -3 -9 -2 -13 4 -10 12 8 15 -7 11 -67
-1 -22 -51 -91 -51 -72 0 5 -4 3 -8 -4 -21 -32 -108 -24 -148 13 -79 75 -17
218 91 209 11 -1 27 -2 35 -3z m-2378 -160 c8 -1 6 -7 -13 -56 -7 -16 -13 -32
-14 -35 0 -3 -10 -36 -22 -75 -24 -79 -78 -292 -87 -345 -15 -88 -19 -116 -19
-128 0 -7 -43 -50 -96 -95 -106 -90 -294 -275 -355 -351 -46 -55 -41 -57 -103
52 l-36 64 36 36 c69 71 101 198 74 291 -25 84 -97 167 -172 198 -41 16 -44
20 -39 47 16 93 130 238 224 285 25 12 52 26 60 31 54 31 192 64 325 76 33 4
61 7 62 8 1 1 161 -1 175 -3z m2043 -37 c42 -141 154 -224 303 -225 52 -1 76
5 128 31 35 17 64 35 64 41 0 19 36 8 61 -19 39 -40 88 -132 103 -193 14 -53
19 -234 8 -254 -4 -5 -7 -14 -8 -20 -10 -51 -16 -73 -34 -127 -25 -72 -93
-211 -137 -281 l-29 -48 -54 62 c-79 90 -229 239 -340 334 -53 46 -97 90 -97
97 0 7 -4 29 -8 48 -3 19 -8 46 -10 60 -6 36 -14 81 -21 110 -3 14 -6 26 -5
27 0 2 -5 17 -10 35 -6 18 -12 44 -15 58 -4 23 -79 259 -90 287 -7 15 16 19
105 18 l74 -2 12 -39z m-1730 -3 c56 -12 77 -16 161 -35 12 -2 62 -17 112 -32
l91 -28 -147 -76 c-151 -78 -315 -175 -411 -242 -30 -21 -56 -36 -58 -34 -3 2
1 23 7 47 7 23 13 52 14 63 6 45 86 298 108 339 10 19 17 19 123 -2z m1383
-81 c35 -101 106 -359 100 -365 -2 -2 -48 25 -102 60 -54 36 -100 65 -103 65
-3 0 -17 8 -31 19 -35 24 -151 88 -279 153 -99 51 -109 59 -77 64 8 1 48 12
87 24 40 12 83 24 97 26 14 3 31 7 39 10 8 2 28 7 45 10 17 3 58 11 91 19 96
22 95 22 133 -85z m-498 -232 c96 -48 227 -119 290 -159 163 -100 349 -231
354 -249 11 -33 23 -143 32 -300 8 -141 3 -441 -10 -575 -18 -186 -17 -181
-44 -198 -15 -8 -36 -24 -47 -34 -29 -28 -264 -181 -375 -245 -211 -122 -452
-232 -486 -224 -101 26 -665 330 -682 369 -2 4 -8 7 -13 7 -8 0 -76 48 -206
144 -1 1 -5 27 -8 57 -3 29 -8 70 -11 88 -25 189 -19 707 12 861 1 8 3 24 3
36 1 13 19 33 49 54 26 19 49 37 52 40 9 10 202 135 300 195 88 54 298 162
450 232 l65 30 50 -21 c27 -11 129 -60 225 -108z m-2080 -260 c0 -4 6 -8 13
-8 12 0 29 -21 52 -65 19 -35 -1 -101 -41 -131 -21 -16 -42 -24 -54 -21 -11 3
-17 1 -14 -4 8 -13 -44 -3 -64 12 -37 28 -59 56 -56 72 1 9 -2 17 -6 17 -5 0
-7 10 -5 23 9 48 49 102 68 90 4 -2 7 -1 6 4 -1 4 -1 11 0 14 2 9 101 6 101
-3z m682 -400 c-7 -100 -7 -466 1 -561 6 -82 14 -85 -133 63 -119 120 -160
165 -184 203 -18 26 -17 27 16 68 39 49 292 309 300 309 4 0 4 -37 0 -82z
m2397 -58 c86 -87 191 -205 191 -215 0 -16 -264 -296 -322 -343 -16 -13 -17
-6 -11 85 7 135 8 398 0 517 l-6 99 27 -24 c15 -13 69 -67 121 -119z m-2617
-610 c64 -63 127 -123 140 -133 13 -10 44 -35 70 -55 45 -36 53 -52 63 -127 4
-24 13 -71 20 -105 4 -14 8 -34 10 -45 2 -11 13 -56 24 -100 12 -44 23 -89 26
-99 7 -31 26 -89 35 -111 4 -11 15 -41 23 -67 16 -55 27 -50 -102 -50 -88 0
-254 17 -271 27 -4 2 -21 7 -38 10 -196 34 -394 200 -426 356 -3 13 -8 35 -11
49 -9 41 -7 182 4 218 5 17 8 32 6 32 -5 0 49 157 72 210 11 25 23 52 26 60 4
8 11 22 17 30 5 8 26 44 46 79 l36 63 57 -63 c31 -35 109 -116 173 -179z
m2975 153 c73 -129 132 -274 150 -368 10 -50 11 -214 2 -250 -5 -22 -12 -48
-14 -59 -8 -35 -68 -130 -104 -166 -137 -135 -349 -202 -639 -202 -51 0 -95 1
-97 3 -1 2 13 51 32 109 34 106 96 344 107 416 17 107 25 137 35 143 64 41
283 248 410 389 36 40 66 72 67 72 1 0 24 -39 51 -87z m-2454 -575 c18 -13 34
-25 37 -28 19 -21 246 -153 413 -240 104 -55 124 -68 105 -73 -13 -3 -63 -17
-113 -32 -49 -14 -110 -30 -135 -35 -25 -5 -56 -12 -70 -15 -24 -6 -89 -15
-125 -18 -18 -2 -44 49 -65 128 -2 6 -11 35 -22 65 -11 30 -21 62 -23 70 -1 8
-8 33 -13 55 -6 22 -13 51 -16 65 -3 14 -9 37 -12 53 -8 33 -2 34 39 5z m1694
5 c-5 -17 -26 -106 -31 -134 -2 -8 -5 -21 -8 -29 -3 -8 -25 -76 -49 -150 -42
-127 -46 -135 -69 -133 -86 6 -269 47 -404 91 l-58 18 88 44 c93 45 265 139
274 149 3 3 17 13 32 21 57 31 198 122 203 131 10 16 27 10 22 -8z m-771 -479
c55 -19 106 -37 114 -39 8 -2 47 -13 85 -25 39 -12 77 -23 85 -25 8 -1 56 -13
105 -24 50 -12 106 -24 125 -27 19 -3 37 -7 39 -9 4 -5 -67 -134 -83 -151 -8
-8 -22 -8 -56 1 -121 32 -261 -28 -329 -140 -36 -60 -49 -112 -45 -187 3 -68
2 -69 -116 -74 -89 -3 -138 6 -227 46 -82 36 -204 139 -273 230 -14 18 -31 39
-37 46 -7 7 -13 15 -13 17 0 3 -16 29 -36 58 -41 61 -87 149 -82 155 2 2 22 6
44 10 42 6 260 58 309 74 107 34 252 84 265 91 21 12 18 13 126 -27z m330
-486 c-6 11 0 12 31 6 21 -4 41 -12 45 -18 4 -6 8 -7 8 -2 0 15 37 -28 44 -52
15 -47 17 -74 5 -66 -8 4 -9 3 -5 -4 9 -16 -22 -68 -48 -81 -33 -17 -76 -21
-77 -8 0 9 -2 9 -5 1 -8 -19 -63 14 -85 50 -14 22 -18 42 -15 71 3 22 5 43 5
47 1 13 54 57 63 52 4 -3 8 0 8 7 0 8 5 7 17 -2 13 -11 15 -11 9 -1z"/>
<path d="M2111 2994 c-142 -30 -261 -94 -371 -199 -73 -69 -95 -99 -151 -200
-16 -29 -29 -60 -29 -69 0 -9 -4 -16 -8 -16 -5 0 -9 -6 -9 -12 -1 -7 -9 -49
-20 -93 -35 -148 -19 -321 44 -465 22 -50 96 -170 105 -170 5 0 8 -6 8 -14 0
-8 4 -16 9 -18 5 -2 34 -26 65 -55 93 -86 228 -157 351 -185 62 -14 234 -18
290 -7 28 5 59 11 71 13 30 6 172 63 187 76 6 6 33 24 58 40 53 34 189 167
189 185 0 2 13 23 29 47 38 58 76 157 95 248 14 71 16 228 2 290 -3 14 -9 39
-12 55 -3 17 -10 35 -14 40 -5 6 -9 13 -9 18 -1 4 -2 9 -2 12 -1 3 -2 8 -3 13
-5 20 -44 93 -77 142 -31 47 -101 123 -159 175 -43 38 -206 123 -252 131 -5 1
-9 2 -10 4 -4 2 -23 7 -83 18 -69 14 -218 12 -294 -4z m750 -387 c78 -112 112
-224 111 -367 0 -68 -6 -113 -21 -160 -12 -36 -19 -49 -15 -30 3 19 8 51 11
70 12 69 6 226 -12 286 -22 76 -58 155 -96 210 -16 24 -26 44 -22 44 4 0 24
-24 44 -53z m-51 -7 c8 -12 20 -28 27 -35 7 -7 9 -15 6 -19 -4 -3 -2 -6 3 -6
8 0 45 -68 49 -90 1 -3 7 -25 15 -50 7 -25 15 -52 17 -60 7 -33 6 -158 -2
-210 -4 -30 -8 -61 -8 -67 0 -7 -4 -13 -8 -13 -5 0 -6 -7 -3 -15 4 -8 1 -15
-4 -15 -6 0 -9 10 -6 23 29 147 20 306 -24 407 -9 19 -16 40 -18 45 -1 6 -20
41 -43 78 -54 89 -55 107 -1 27z m-28 -22 c45 -52 106 -193 106 -248 1 -8 2
-35 3 -60 2 -51 -18 -157 -31 -165 -5 -3 -7 4 -4 15 2 11 6 30 9 43 7 32 8
137 2 177 -11 66 -63 200 -79 200 -4 0 -8 5 -8 12 0 6 -7 20 -17 30 -9 10 -13
18 -8 18 4 0 16 -10 27 -22z m-15 -53 c21 -28 46 -80 63 -131 19 -60 26 -222
10 -253 -5 -9 -13 -32 -19 -51 l-10 -35 6 35 c11 68 12 227 2 266 -13 53 -39
113 -62 147 -10 15 -16 27 -12 27 3 0 -3 10 -15 22 -11 12 -20 27 -20 32 0 9
27 -19 57 -59z m-1096 -18 c-10 -9 -11 -8 -5 6 3 10 9 15 12 12 3 -3 0 -11 -7
-18z m1072 -19 c-2 -5 -1 -8 4 -8 13 0 42 -70 45 -107 1 -7 4 -13 7 -13 7 0 5
-99 -2 -147 -5 -31 -24 -73 -32 -73 -3 0 0 12 6 28 16 38 17 198 2 213 -6 6
-9 18 -6 25 3 8 0 14 -6 14 -6 0 -11 7 -11 16 0 9 -8 28 -18 42 -34 50 -36 56
-10 36 14 -10 24 -22 21 -26z m-358 7 c142 -69 201 -240 128 -375 -99 -183
-351 -196 -470 -25 -37 55 -56 152 -40 215 22 91 104 173 197 200 45 13 143 5
185 -15z m325 -43 c0 -5 7 -15 15 -22 8 -6 14 -15 13 -18 -1 -4 5 -20 12 -37
14 -35 21 -165 8 -165 -5 0 -7 -4 -4 -9 3 -5 -1 -26 -9 -47 l-15 -39 7 45 c11
73 10 163 -2 195 -27 72 -48 115 -56 115 -5 0 -9 10 -9 21 0 21 1 21 20 -4 11
-14 20 -30 20 -35z m-1054 -9 c-10 -26 -18 -8 -9 23 5 21 8 24 11 11 2 -10 1
-25 -2 -34z m-31 17 c3 -5 1 -10 -4 -10 -6 0 -11 5 -11 10 0 6 2 10 4 10 3 0
8 -4 11 -10z m1038 -10 c9 -11 20 -32 23 -47 4 -16 9 -32 13 -38 17 -30 1
-165 -21 -165 -5 0 -6 5 -2 12 17 27 13 130 -7 184 -11 30 -25 54 -30 54 -5 0
-9 5 -9 10 0 16 14 12 33 -10z m-46 -19 c33 -43 49 -92 48 -136 -3 -78 -5 -95
-13 -95 -4 0 -7 30 -6 68 2 67 -19 133 -55 176 -7 9 -9 16 -4 16 5 0 19 -13
30 -29z m-997 0 c0 -6 -4 -13 -10 -16 -5 -3 -10 1 -10 9 0 9 5 16 10 16 6 0
10 -4 10 -9z m109 -67 c-11 -56 -8 -159 6 -234 8 -44 29 -90 72 -157 18 -29
31 -53 29 -53 -9 0 -46 39 -46 48 0 6 -3 12 -7 14 -22 9 -89 180 -78 198 2 4
0 21 -5 39 -5 17 -6 31 -2 31 4 0 7 19 8 43 0 42 23 141 30 134 2 -2 -1 -30
-7 -63z m-85 19 c-26 -177 20 -362 128 -513 l40 -55 -45 49 c-69 76 -137 223
-142 309 -1 21 -5 40 -7 43 -5 5 0 111 7 149 2 11 4 28 4 38 1 9 5 17 11 17 5
0 7 -17 4 -37z m57 18 c-6 -10 -7 -21 -4 -25 3 -3 1 -6 -6 -6 -8 0 -11 6 -7
16 3 9 6 20 6 25 0 5 5 9 10 9 7 0 7 -6 1 -19z m-97 -33 c-1 -18 -4 -33 -5
-33 -4 0 -5 -141 -1 -149 4 -8 11 -54 14 -93 1 -7 4 -13 7 -13 4 0 8 -12 9
-27 1 -16 7 -29 12 -31 6 -2 10 -11 10 -21 0 -9 14 -38 30 -64 17 -26 30 -50
30 -53 0 -4 14 -25 32 -48 23 -29 25 -35 9 -21 -56 48 -140 198 -157 280 -17
85 -22 196 -10 250 2 11 5 28 5 38 1 9 5 17 10 17 5 0 7 -15 5 -32z m221 2
c-12 -20 -18 -66 -18 -147 1 -77 3 -87 42 -157 49 -90 52 -104 9 -45 -47 64
-57 84 -64 126 -3 21 -7 47 -9 58 -7 45 23 175 41 175 3 0 2 -5 -1 -10z m-142
-77 c-3 -38 -5 -72 -5 -78 5 -51 13 -103 19 -115 3 -8 7 -21 9 -28 5 -25 49
-108 81 -154 55 -79 38 -74 -22 7 -62 83 -102 188 -107 280 -1 22 13 139 18
146 12 19 13 6 7 -58z m97 30 c-28 -82 -13 -217 33 -290 13 -21 30 -49 37 -63
12 -25 12 -25 -6 -5 -29 30 -74 103 -74 118 0 8 -3 17 -7 21 -4 3 -8 14 -10
24 -3 17 -6 130 -4 145 0 4 1 9 1 12 -1 8 30 65 35 65 2 0 0 -12 -5 -27z m130
-38 c-17 -77 13 -208 54 -237 8 -5 8 -8 0 -8 -14 0 -54 47 -54 63 0 7 -5 18
-12 25 -15 15 -15 141 1 170 17 31 20 28 11 -13z m-44 -83 c0 -70 4 -85 32
-138 l33 -59 -35 40 c-19 22 -33 41 -31 43 2 2 -3 15 -10 29 -8 16 -11 45 -8
81 2 32 5 63 5 70 1 6 4 12 8 12 3 0 6 -35 6 -78z m987 -127 c-3 -9 -8 -14
-10 -11 -3 3 -2 9 2 15 9 16 15 13 8 -4z"/>
<path d="M2243 2310 c-71 -29 -40 -146 36 -134 65 11 85 84 33 124 -27 22 -36
23 -69 10z"/>
</g>
</svg>
